# xmcd
#
# Track frame offsets:
#	182
#	17777
#	30255
#	44920
#	65062
#	78252
#	94157
#	109900
#	123347
#	143592
#
# Disc length: 2057
#
# Revision: 2
# Processed by: cddbd v1.5.1PL0 Copyright (c) Steve Scherf et al.
# Submitted via: audiograbber 1.70
# Normalized: r1:DSETVAR1
#
DISCID=8308070a
DTITLE=Various Artist - Top Country Hits
DYEAR=1900
DGENRE=
TTITLE0=Wynona Judd - I Saw The Light
TTITLE1=Lyle Lovett - Stand By Your Man
TTITLE2=Sawyer Brown - Some Girls Do
TTITLE3=Hal Ketchum - Past The Point Of Rescue
TTITLE4=Tim McGraw - Welcome To The Club
TTITLE5=Boy Howdy - Our Love Was Meant To Be
TTITLE6=Merle Haggard - When It Rains It Pours
TTITLE7=Desert Rose Band - She Don't Love Nobody
TTITLE8=Delbert McClinton - Everytime I Roll The Dice
TTITLE9=Ray Stevens - Help Me Make It Through The Night
EXTD=(C) 1993 Club Records, Inc.
EXTT0=
EXTT1=
EXTT2=
EXTT3=
EXTT4=
EXTT5=
EXTT6=
EXTT7=
EXTT8=
EXTT9=
PLAYORDER=
